<?xml version="1.0" standalone="no"?>
<!DOCTYPE svg PUBLIC "-//W3C//DTD SVG 20010904//EN"
 "http://www.w3.org/TR/2001/REC-SVG-20010904/DTD/svg10.dtd">
<svg version="1.0" xmlns="http://www.w3.org/2000/svg"
 width="1024.000000pt" height="1024.000000pt" viewBox="0 0 1024.000000 1024.000000"
 preserveAspectRatio="xMidYMid meet">
<metadata>
Created by potrace 1.16, written by Peter Selinger 2001-2019
</metadata>
<g transform="translate(0.000000,1024.000000) scale(1.000000,-1.000000)"
fill="#000000" stroke="none">
<path d="M489 931 c0 -2 0 -2 -1 -1 -2 1 -2 1 -3 -1 -1 -4 -13 -31 -29 -68
-16 -35 -36 -76 -56 -115 -19 -39 -26 -56 -33 -78 -3 -13 -7 -35 -7 -44 0 -7
3 -27 6 -39 1 -6 2 -11 2 -12 0 -5 -11 10 -19 26 -3 8 -8 21 -11 32 -2 7 -4
26 -4 37 0 36 10 66 41 119 7 11 14 24 17 28 2 4 5 8 5 9 2 1 3 5 1 5 -1 0
-21 -21 -31 -32 -13 -14 -22 -26 -32 -42 -20 -33 -34 -65 -42 -98 -6 -22 -6
-27 -6 -52 0 -20 0 -25 2 -35 8 -38 20 -60 47 -81 25 -19 64 -55 83 -77 23
-28 40 -53 59 -87 11 -20 30 -62 32 -69 0 -2 4 -5 4 -4 0 0 3 5 5 12 25 64 59
118 102 164 13 13 39 38 49 46 14 11 34 28 39 33 15 16 24 38 28 68 2 11 2 17
2 34 -1 22 -3 34 -9 57 -6 21 -11 34 -22 56 -19 40 -44 74 -75 101 -3 3 -6 6
-6 7 0 0 -1 1 -2 1 -2 1 -3 0 -3 0 0 -1 1 -1 2 -1 0 0 1 -1 1 -1 0 -1 2 -4 3
-7 7 -9 32 -50 38 -63 11 -21 18 -39 23 -58 1 -4 1 -14 2 -27 0 -22 -1 -30 -5
-48 -5 -18 -16 -41 -25 -51 -1 -2 -2 -3 -2 -4 0 -1 0 -1 -1 0 -1 2 0 8 1 10 0
0 1 3 2 7 0 3 2 9 2 13 2 10 2 37 0 48 -5 20 -11 40 -20 59 -2 6 -16 35 -31
65 -15 30 -33 68 -41 84 -11 25 -30 67 -33 74 -1 2 -1 2 -1 -1 -1 -4 0 -14 9
-69 8 -49 15 -74 37 -122 21 -45 23 -53 27 -72 2 -15 0 -35 -5 -45 -2 -4 -2
-4 5 -14 10 -13 17 -29 20 -43 3 -12 3 -30 2 -42 -6 -37 -29 -71 -63 -90 -4
-2 -8 -5 -8 -7 -2 -4 -46 -134 -46 -136 0 -2 -2 -3 -4 -1 0 1 -4 11 -7 22 -22
68 -38 115 -40 117 -1 1 -5 3 -8 5 -2 2 -9 6 -15 11 -34 25 -54 74 -47 114 3
19 11 37 23 52 3 3 5 7 5 7 0 1 -1 5 -3 9 -4 11 -5 29 -3 42 2 12 8 29 14 44
29 64 36 82 44 119 4 19 6 28 10 60 4 29 5 34 6 38 0 2 0 4 0 4 -1 0 -1 -1 -1
-2z m-119 -362 c-1 -1 -1 0 -1 2 0 1 0 2 1 1 0 0 0 -2 0 -3z"/>
<path d="M401 831 c-1 0 -1 -1 0 -1 1 -1 1 0 1 0 0 2 -1 2 -1 1z"/>
<path d="M513 709 c0 -2 0 -3 -1 -3 0 -1 -1 -4 -2 -7 -1 -12 -12 -58 -15 -61
-1 -1 -5 -3 -9 -5 -31 -10 -55 -34 -65 -66 -4 -16 -4 -40 1 -56 7 -18 21 -37
37 -49 7 -5 22 -12 30 -15 3 0 6 -2 7 -3 2 -1 14 -33 14 -35 0 -1 1 -2 2 -3 2
-1 2 -2 7 13 6 16 8 22 10 24 1 1 4 3 6 4 9 2 25 11 31 15 4 3 9 8 13 12 31
29 38 73 19 111 -7 12 -21 28 -33 36 -8 5 -21 12 -27 13 -3 1 -6 3 -7 3 -2 3
-16 63 -16 70 0 1 0 3 -1 4 -1 0 -1 -1 -1 -2z m19 -106 c29 -9 49 -40 45 -71
-2 -10 -4 -19 -9 -26 -22 -33 -64 -40 -95 -17 -23 18 -31 53 -18 79 10 21 28
34 51 37 6 1 18 0 26 -2z"/>
<path d="M507 575 c-10 -2 -21 -10 -26 -20 -2 -5 -2 -7 -2 -15 0 -11 2 -17 10
-25 6 -6 14 -9 24 -9 26 -1 43 27 31 50 -8 14 -22 22 -37 19z"/>
<path d="M781 550 c0 -1 3 -13 8 -28 10 -33 27 -92 27 -97 0 -2 -19 -30 -33
-50 -11 -15 -26 -33 -47 -59 -16 -20 -20 -23 -34 -31 -3 -1 -11 -6 -18 -9 -11
-7 -31 -18 -56 -32 -16 -9 -25 -14 -34 -19 -7 -5 -8 -6 -13 -14 -3 -5 -9 -16
-13 -23 -5 -8 -10 -17 -11 -20 -2 -3 -8 -13 -13 -22 -12 -23 -29 -54 -30 -55
-2 -2 -4 1 -9 10 -32 61 -62 114 -66 119 -2 1 -7 4 -11 7 -21 12 -37 21 -68
38 -38 22 -49 28 -53 31 -5 4 -53 64 -66 83 -5 7 -19 27 -26 37 -3 5 -5 8 -5
10 0 3 4 18 9 37 11 37 14 47 17 59 2 7 5 14 6 17 1 5 1 9 0 10 -1 0 -1 0 -1
-1 0 0 -3 -5 -6 -9 -30 -46 -50 -76 -61 -97 -2 -5 -5 -9 -6 -10 -2 -4 -1 -8
10 -28 17 -28 36 -61 39 -65 1 -3 7 -11 11 -19 5 -9 11 -19 14 -23 3 -4 9 -14
14 -22 9 -15 14 -22 16 -22 1 0 4 -2 7 -3 5 -3 11 -7 35 -19 35 -19 44 -24 64
-35 l22 -12 11 -12 c6 -7 16 -17 22 -23 6 -7 18 -19 26 -29 21 -21 51 -52 53
-53 1 -1 4 1 11 8 12 13 28 30 37 40 4 4 11 12 16 17 5 4 16 17 25 27 10 10
19 20 20 21 4 4 28 17 59 34 65 34 76 40 78 43 6 6 88 143 98 164 4 7 4 6 -9
28 -8 14 -15 26 -38 62 -3 4 -9 13 -14 21 -5 8 -10 15 -11 16 -1 3 -2 3 -3 2z"/>
<path d="M713 449 c0 -1 -1 -2 -1 -2 0 1 -3 -1 -6 -4 -3 -3 -14 -12 -23 -21
-48 -43 -88 -80 -90 -83 0 -1 -3 -9 -6 -17 -4 -8 -7 -16 -7 -17 -1 -3 -22 -60
-30 -80 -2 -7 -5 -14 -5 -16 -1 -3 -2 -5 -3 -6 -1 -1 -1 -3 0 -5 1 -1 1 -1 1
0 0 1 1 2 1 3 1 0 3 2 4 4 1 1 6 9 10 16 5 7 18 26 29 42 36 52 60 86 66 95 3
4 15 22 27 40 20 29 27 39 30 43 1 0 1 1 1 2 0 0 1 1 2 2 2 2 3 5 2 6 -1 0 -1
-1 -2 -2z"/>
<path d="M313 447 c-1 -1 4 -9 14 -23 9 -12 19 -27 23 -33 5 -6 14 -20 21 -31
8 -11 17 -24 21 -30 5 -7 14 -20 22 -31 35 -51 66 -96 67 -99 1 -2 3 1 2 3 0
2 -2 6 -4 11 -1 5 -8 22 -14 38 -5 16 -12 34 -13 39 -13 33 -15 39 -17 44 -3
6 -8 12 -27 28 -6 5 -13 12 -16 14 -3 3 -10 9 -15 14 -8 7 -30 26 -51 46 -5 4
-9 7 -10 7 0 0 -1 1 -2 2 -1 2 -1 2 -1 1z"/>
</g>
</svg>
